<?xml version="1.0" encoding="UTF-8" standalone="no"?>
<!-- BERN STARK -->
<svg
   xmlns:svg="http://www.w3.org/2000/svg"
   xmlns="http://www.w3.org/2000/svg"
   width="150mm"
   height="150mm"
   viewBox="0 0 50 50"
   id="bern"
   version="1.1">
  <g id="layer1">
        <rect
                style="fill:#000000;fill-opacity:0;stroke:none"
                width="300"
                height="300"
                x="0"
                y="0"
                ry="0"
        />
        <path d="M 25 5
                A 20 20 0 1 0 25.01 5
                " stroke="#333333" fill="#F0A000" stroke-width="2" fill-opacity="1"
        />
<path d="M 25 40 M 25 40 L 25 36.538461538462 M 27.921212283778 39.712801187847 L 27.655647530707 38.375273807133 M 30.730562074496 38.862202505747 L 30.209601885906 37.602002277952 M 33.320470449112 37.480776077851 L 32.564064044648 36.346160070773 M 35.591761593123 35.621421108046 L 33.147508917787 33.170323929266 M 37.45746055738 33.355338201493 L 36.324964143072 32.595762001358 M 38.846123805033 30.769302867393 L 37.587385277302 30.244820788539 M 39.704575011388 27.96234260923 L 38.367795464898 27.693038735664 M 39.999941354212 25.041944847259 L 36.538416426317 25.032265267122 M 39.720912318462 22.119940883914 L 38.382647562238 22.381764439922 M 38.878172811823 19.308223528178 L 37.61652073802 19.825657752889 M 37.503994005661 16.714462364675 L 36.367267277874 17.467693058795 M 35.65099756942 14.437980743428 L 33.1930750534 16.875369802637 M 33.390140619821 12.565952373437 L 32.627400563474 13.696320339489 M 30.807998547581 11.170063164595 L 30.279998679619 12.427330149632 M 28.003449770827 10.30376614659 L 27.73040888257 11.639787405991 M 25.083889366533 10.000234582695 L 25.064530281949 13.461718909765 M 22.16111657205 10.27109166019 L 22.419196883682 11.610083327446 M 19.347053637347 11.10596540162 L 19.860957852134 12.369059456018 M 16.749459966714 12.47288584074 L 17.499509060649 13.611714400672 M 14.467805669038 14.319509254025 L 16.898312053106 16.784237887712 M 12.589462531525 16.575122568039 L 13.717693210477 17.341020516399 M 11.186358276562 19.153351187518 L 12.442143887784 19.684864715926 M 10.312222220864 21.955466552868 L 11.64747474624 22.232242320789 M 10.000527809344 24.874166770161 L 13.461944468726 24.903205207816 M 10.263210810635 27.797685541339 L 11.602918918759 27.543350492126 M 11.090212258611 30.614072050617 L 12.354738416919 30.103701864197 M 12.449863642139 33.215477916657 L 13.590785129217 32.46861628787 M 14.290099592911 35.502287049507 L 16.76161507147 33.078682345774 M 16.540451633709 37.386930266954 L 17.30950148519 36.260845697231 M 19.114746640128 38.79723859655 L 19.649769672844 37.542944178681 M 21.914406683104 39.679206854688 L 22.194915166458 38.344733504262 M 24.832223890799 39.999061676558 L 24.870941454461 36.537739751198 " stroke="#FFFFFF" fill="#FFFFFF" stroke-width="1" fill-opacity="0" />
<!--
        <path d="M 25 18
                A 7 7 0 1 0 25.01 18
                " stroke="#333333" fill="#F0A000" stroke-width="1" fill-opacity="1"
        />
-->
	<path d="M 25 25
                L 25 17
                " stroke="#FFFFFF" fill="#00F000" stroke-width="1.8" fill-opacity="1"
        />
	<path d="M 25 25
                L 35 25
                " stroke="#FFFFFF" fill="#00F000" stroke-width="1.1" fill-opacity="1"
        />
	<path d="M 25 23
                A 2 2 0 1 0 25.01 23
                " stroke="#FFFFFF" fill="#FFFFFF" stroke-width="0.2" fill-opacity="1"
        />
<!--
	<path d="M 25 20
                L 22 29
                " stroke="#333333" fill="#00F000" stroke-width="1" fill-opacity="1"
        />
        <path d="M 25 20
                L 28 29
                " stroke="#333333" fill="#00F000" stroke-width="1" fill-opacity="1"
        />
	<path d="M 23 25
                L 27 25
                " stroke="#333333" fill="#00F000" stroke-width="1" fill-opacity="1"
        />
-->
</g></svg>