<?xml version="1.0" encoding="UTF-8" standalone="no"?>
<!-- BERN STARK -->
<svg
   xmlns:svg="http://www.w3.org/2000/svg"
   xmlns="http://www.w3.org/2000/svg"
   width="150mm"
   height="150mm"
   viewBox="0 0 50 50"
   id="bern"
   version="1.1">
  <g id="layer1">
        <rect
                style="fill:#000000;fill-opacity:0;stroke:none"
                width="300"
                height="300"
                x="0"
                y="0"
                ry="0"
        />
        <path d="M 25 5
                A 20 20 0 1 0 25.01 5
                " stroke="#333333" fill="#F0A000" stroke-width="2" fill-opacity="1"
        />
<path d="M 25 40 A 6.5 6.5 0 0 1 35.60237771658 35.610824037508 A 6.5 6.5 0 0 1 39.999995243978 25.011944900661 A 6.5 6.5 0 0 1 35.619263629726 14.4060753277 A 6.5 6.5 0 0 1 25.023889793747 10.000019024087 A 6.5 6.5 0 0 1 14.414535089973 14.372303512116 A 6.5 6.5 0 0 1 10.000042804184 24.964165328316 A 6.5 6.5 0 0 1 14.363877393367 35.576998435126 A 6.5 6.5 0 0 1 24.952220473103 39.999923903701 " stroke="#333333" fill="#FFFFFF" stroke-width="1" fill-opacity="1" />
        <path d="M 25 18
                A 7 7 0 1 0 25.01 18
                " stroke="#333333" fill="#00F000" stroke-width="1" fill-opacity="1"
        />
	<path d="M 25 20
                L 22 29
                " stroke="#333333" fill="#00F000" stroke-width="1" fill-opacity="1"
        />
        <path d="M 25 20
                L 28 29
                " stroke="#333333" fill="#00F000" stroke-width="1" fill-opacity="1"
        />
	<path d="M 23 25
                L 27 25
                " stroke="#333333" fill="#00F000" stroke-width="1" fill-opacity="1"
        />
</g></svg>