<?xml version="1.0" encoding="UTF-8" standalone="no"?>
<!-- BERN STARK -->
<svg
   xmlns:svg="http://www.w3.org/2000/svg"
   xmlns="http://www.w3.org/2000/svg"
   width="150mm"
   height="150mm"
   viewBox="0 0 50 50"
   id="bern"
   version="1.1">
  <g id="layer1">
        <rect
                style="fill:#000000;fill-opacity:1;stroke:none"
                width="300"
                height="300"
                x="0"
                y="0"
                ry="0"
        />
        <path d="M 25 18
                A 20 20 0 0 0 25 50
		A 50 20 0 0 0 28 35
		A 30 20 0 0 1 25 18
                " stroke="#333333" fill="#0000A0" stroke-width="1" fill-opacity="1"
        />
	<path d="M 21 28
                A 20 20 0 0 0 25 50
                A 50 20 0 0 0 25 35
                A 30 20 0 0 1 21 28
                " stroke="#2222FF" fill="#0000F0" stroke-width="0.3" fill-opacity="1"
        />
	<path d="M 21 32
                A 20 20 0 0 0 25 50
                A 50 20 0 0 0 23.5 35
                A 30 20 0 0 1 21 32
                " stroke="#2222FF" fill="#4444FF" stroke-width="0.3" fill-opacity="1"
        />
  </g>
</svg>
